# xmcd CD database file generated by GCD 2.5
# 
# Track frame offsets:
#       183
#       18038
#       32268
#       48195
#       65948
#       82820
#       97350
#       120713
#       138875
#       154810
#       173395
#       194653
#       205108
#       227070
#       244963
#       260560
# 
# Disc length: 3722 seconds
# 
# Revision: 3
# Processed by: cddbd v1.4b41PL1 Copyright (c) Steve Scherf et al.
# Submitted via: GCD 2.5
# 
DISCID=d30e8810
DTITLE=The Chicago Slim Blues Band - Boogie till break of day
DYEAR=1900
DGENRE=
TTITLE0=I know you're smokin' reefer
TTITLE1=Harpsucker !!
TTITLE2=I got a rich man woman
TTITLE3=Little red rooster
TTITLE4=Sweet lovin' woman
TTITLE5=Ride that number nine
TTITLE6=Love me ... or I'll kill ya !
TTITLE7=Knock 3 times
TTITLE8=Boogie till the break of day
TTITLE9=Knee deep in trouble
TTITLE10=I want you to rape me
TTITLE11=Bettaer buy this record
TTITLE12=Help me
TTITLE13=Love you mama
TTITLE14=Knocked out and loaded
TTITLE15=Smokin' reefer
EXTD=
EXTT0=
EXTT1=
EXTT2=
EXTT3=
EXTT4=
EXTT5=
EXTT6=
EXTT7=
EXTT8=
EXTT9=
EXTT10=
EXTT11=
EXTT12=
EXTT13=
EXTT14=
EXTT15=
PLAYORDER=
